HIERARCHY
ROOT reference
{
  OFFSET -65.3212 -1.93545 -120.338
  CHANNELS 6 Xposition Yposition Zposition Zrotation Xrotation Yrotation
  JOINT Hips
  {
    OFFSET 0 78.7191 0
    CHANNELS 6 Xposition Yposition Zposition Zrotation Xrotation Yrotation
    JOINT Chest
    {
      OFFSET 0 8.7983 -4.7612
      CHANNELS 6 Xposition Yposition Zposition Zrotation Xrotation Yrotation
      JOINT Chest2
      {
        OFFSET 0 8.0291 0.4195
        CHANNELS 6 Xposition Yposition Zposition Zrotation Xrotation Yrotation
        JOINT Chest3
        {
          OFFSET 0 9.9351 -2.2114
          CHANNELS 6 Xposition Yposition Zposition Zrotation Xrotation Yrotation
          JOINT Neck
          {
            OFFSET 0 22.3885 -0.4656
            CHANNELS 6 Xposition Yposition Zposition Zrotation Xrotation Yrotation
            JOINT Head
            {
              OFFSET -0.0001 12.643 3.4389
              CHANNELS 6 Xposition Yposition Zposition Zrotation Xrotation Yrotation
              End Site
              {
                OFFSET 0.0001 17.6655 0.5274
              }
            }
          }
          JOINT LeftCollar
          {
            OFFSET 2.2603 21.606 7.4023
            CHANNELS 6 Xposition Yposition Zposition Zrotation Xrotation Yrotation
            JOINT LeftShoulder
            {
              OFFSET 13.5163 -1.1332 -5.0146
              CHANNELS 6 Xposition Yposition Zposition Zrotation Xrotation Yrotation
              JOINT LeftElbow
              {
                OFFSET -0.0995 -28.05 -0.2431
                CHANNELS 6 Xposition Yposition Zposition Zrotation Xrotation Yrotation
                JOINT LeftWrist
                {
                  OFFSET 0.0679 -23.3996 -0.1402
                  CHANNELS 6 Xposition Yposition Zposition Zrotation Xrotation Yrotation
                  JOINT LeftFinger1
                  {
                    OFFSET 0.7932 -9.069 2.5189
                    CHANNELS 6 Xposition Yposition Zposition Zrotation Xrotation Yrotation
                    JOINT LeftFinger11
                    {
                      OFFSET -0.8272 -3.3923 0.5977
                      CHANNELS 6 Xposition Yposition Zposition Zrotation Xrotation Yrotation
                      JOINT LeftFinger12
                      {
                        OFFSET -0.5649 -2.3158 0.4082
                        CHANNELS 6 Xposition Yposition Zposition Zrotation Xrotation Yrotation
                        End Site
                        {
                          OFFSET -0.4919 -1.6479 0.2673
                        }
                      }
                    }
                  }
                  JOINT LeftFinger2
                  {
                    OFFSET 0.9159 -9.2044 0.2193
                    CHANNELS 6 Xposition Yposition Zposition Zrotation Xrotation Yrotation
                    JOINT LeftFinger21
                    {
                      OFFSET 0.0117 -4.1944 -0.0248
                      CHANNELS 6 Xposition Yposition Zposition Zrotation Xrotation Yrotation
                      JOINT LeftFinger22
                      {
                        OFFSET 0.0071 -2.3249 -0.0142
                        CHANNELS 6 Xposition Yposition Zposition Zrotation Xrotation Yrotation
                        End Site
                        {
                          OFFSET -0.1475 -2.0882 0.0028
                        }
                      }
                    }
                  }
                  JOINT LeftFinger3
                  {
                    OFFSET 0.6113 -8.7231 -2.0637
                    CHANNELS 6 Xposition Yposition Zposition Zrotation Xrotation Yrotation
                    JOINT LeftFinger31
                    {
                      OFFSET -0.1927 -3.8059 -0.2383
                      CHANNELS 6 Xposition Yposition Zposition Zrotation Xrotation Yrotation
                      JOINT LeftFinger32
                      {
                        OFFSET -0.1091 -2.1688 -0.1362
                        CHANNELS 6 Xposition Yposition Zposition Zrotation Xrotation Yrotation
                        End Site
                        {
                          OFFSET -0.2358 -1.9176 -0.0906
                        }
                      }
                    }
                  }
                  JOINT LeftFinger4
                  {
                    OFFSET -0.6151 -8.0947 -3.5641
                    CHANNELS 6 Xposition Yposition Zposition Zrotation Xrotation Yrotation
                    JOINT LeftFinger41
                    {
                      OFFSET -0.4882 -2.341 -0.6462
                      CHANNELS 6 Xposition Yposition Zposition Zrotation Xrotation Yrotation
                      JOINT LeftFinger42
                      {
                        OFFSET -0.3575 -1.7167 -0.4742
                        CHANNELS 6 Xposition Yposition Zposition Zrotation Xrotation Yrotation
                        End Site
                        {
                          OFFSET -0.4187 -1.5237 -0.3496
                        }
                      }
                    }
                  }
                  JOINT LeftFinger0
                  {
                    OFFSET -1.42 -1.8761 1.4223
                    CHANNELS 6 Xposition Yposition Zposition Zrotation Xrotation Yrotation
                    JOINT LeftFinger01
                    {
                      OFFSET -1.1471 -3.4929 2.6334
                      CHANNELS 6 Xposition Yposition Zposition Zrotation Xrotation Yrotation
                      JOINT LeftFinger02
                      {
                        OFFSET -0.823 -2.3 1.6571
                        CHANNELS 6 Xposition Yposition Zposition Zrotation Xrotation Yrotation
                        End Site
                        {
                          OFFSET -0.5822 -1.6914 1.1582
                        }
                      }
                    }
                  }
                }
              }
            }
          }
          JOINT RightCollar
          {
            OFFSET -2.2603 21.606 7.4023
            CHANNELS 6 Xposition Yposition Zposition Zrotation Xrotation Yrotation
            JOINT RightShoulder
            {
              OFFSET -13.5187 -1.1334 -5.0155
              CHANNELS 6 Xposition Yposition Zposition Zrotation Xrotation Yrotation
              JOINT RightElbow
              {
                OFFSET 0.0994 -28.0499 -0.2431
                CHANNELS 6 Xposition Yposition Zposition Zrotation Xrotation Yrotation
                JOINT RightWrist
                {
                  OFFSET -0.0679 -23.3996 -0.1402
                  CHANNELS 6 Xposition Yposition Zposition Zrotation Xrotation Yrotation
                  JOINT RightFinger1
                  {
                    OFFSET -0.7932 -9.0691 2.5189
                    CHANNELS 6 Xposition Yposition Zposition Zrotation Xrotation Yrotation
                    JOINT RightFinger11
                    {
                      OFFSET 0.8272 -3.3923 0.5977
                      CHANNELS 6 Xposition Yposition Zposition Zrotation Xrotation Yrotation
                      JOINT RightFinger12
                      {
                        OFFSET 0.565 -2.3158 0.4082
                        CHANNELS 6 Xposition Yposition Zposition Zrotation Xrotation Yrotation
                        End Site
                        {
                          OFFSET 0.4919 -1.6479 0.2673
                        }
                      }
                    }
                  }
                  JOINT RightFinger2
                  {
                    OFFSET -0.916 -9.2044 0.2193
                    CHANNELS 6 Xposition Yposition Zposition Zrotation Xrotation Yrotation
                    JOINT RightFinger21
                    {
                      OFFSET -0.0117 -4.1944 -0.0248
                      CHANNELS 6 Xposition Yposition Zposition Zrotation Xrotation Yrotation
                      JOINT RightFinger22
                      {
                        OFFSET -0.0071 -2.3249 -0.0142
                        CHANNELS 6 Xposition Yposition Zposition Zrotation Xrotation Yrotation
                        End Site
                        {
                          OFFSET 0.1475 -2.0882 0.0028
                        }
                      }
                    }
                  }
                  JOINT RightFinger3
                  {
                    OFFSET -0.6113 -8.7231 -2.0637
                    CHANNELS 6 Xposition Yposition Zposition Zrotation Xrotation Yrotation
                    JOINT RightFinger31
                    {
                      OFFSET 0.1927 -3.8059 -0.2383
                      CHANNELS 6 Xposition Yposition Zposition Zrotation Xrotation Yrotation
                      JOINT RightFinger32
                      {
                        OFFSET 0.1091 -2.1688 -0.1362
                        CHANNELS 6 Xposition Yposition Zposition Zrotation Xrotation Yrotation
                        End Site
                        {
                          OFFSET 0.2358 -1.9176 -0.0906
                        }
                      }
                    }
                  }
                  JOINT RightFinger4
                  {
                    OFFSET 0.6151 -8.0947 -3.564
                    CHANNELS 6 Xposition Yposition Zposition Zrotation Xrotation Yrotation
                    JOINT RightFinger41
                    {
                      OFFSET 0.4882 -2.341 -0.6462
                      CHANNELS 6 Xposition Yposition Zposition Zrotation Xrotation Yrotation
                      JOINT RightFinger42
                      {
                        OFFSET 0.3574 -1.7166 -0.4742
                        CHANNELS 6 Xposition Yposition Zposition Zrotation Xrotation Yrotation
                        End Site
                        {
                          OFFSET 0.4187 -1.5237 -0.3496
                        }
                      }
                    }
                  }
                  JOINT RightFinger0
                  {
                    OFFSET 1.4199 -1.8761 1.4221
                    CHANNELS 6 Xposition Yposition Zposition Zrotation Xrotation Yrotation
                    JOINT RightFinger01
                    {
                      OFFSET 1.1472 -3.4929 2.6336
                      CHANNELS 6 Xposition Yposition Zposition Zrotation Xrotation Yrotation
                      JOINT RightFinger02
                      {
                        OFFSET 0.8229 -2.3 1.6571
                        CHANNELS 6 Xposition Yposition Zposition Zrotation Xrotation Yrotation
                        End Site
                        {
                          OFFSET 0.5822 -1.6914 1.1582
                        }
                      }
                    }
                  }
                }
              }
            }
          }
        }
      }
    }
    JOINT RightHip
    {
      OFFSET -9.412 3.9771 -0.7758
      CHANNELS 6 Xposition Yposition Zposition Zrotation Xrotation Yrotation
      JOINT RightKnee
      {
        OFFSET -0.7531 -40.938 0
        CHANNELS 6 Xposition Yposition Zposition Zrotation Xrotation Yrotation
        JOINT RightAnkle
        {
          OFFSET 0 -40.1986 0
          CHANNELS 6 Xposition Yposition Zposition Zrotation Xrotation Yrotation
          JOINT RightToe
          {
            OFFSET 0 -4.4182 9.239
            CHANNELS 6 Xposition Yposition Zposition Zrotation Xrotation Yrotation
            End Site
            {
              OFFSET 0 0 6.1981
            }
          }
        }
      }
    }
    JOINT LeftHip
    {
      OFFSET 9.4119 3.9773 -0.7758
      CHANNELS 6 Xposition Yposition Zposition Zrotation Xrotation Yrotation
      JOINT LeftKnee
      {
        OFFSET 0.7532 -40.9383 0
        CHANNELS 6 Xposition Yposition Zposition Zrotation Xrotation Yrotation
        JOINT LeftAnkle
        {
          OFFSET 0 -40.1986 0
          CHANNELS 6 Xposition Yposition Zposition Zrotation Xrotation Yrotation
          JOINT LeftToe
          {
            OFFSET 0 -4.4182 9.239
            CHANNELS 6 Xposition Yposition Zposition Zrotation Xrotation Yrotation
            End Site
            {
              OFFSET 0 0 6.1981
            }
          }
        }
      }
    }
  }
}
MOTION
Frames:	4
Frame Time:	0.0333333
-25.0683 43.0099 2.7019 0 0 -0 3.55271e-015 78.7191 0 33.8406 -12.4701 -34.8072 7.10543e-015 8.7983 -4.7612 -5.09009 -1.48189 11.3165 7.10543e-015 8.0291 0.4195 -9.7986 -3.92775 22.4765 1.77636e-015 9.9351 -2.2114 -9.79859 -3.92775 22.4765 -1.06581e-014 22.3885 -0.4656 2.91143 -15.2927 30.3173 -0.0001 12.643 3.4389 7.88569 -1.38362 14.3851 2.2603 21.606 7.4023 30.0446 0.468045 6.07927 13.5163 -1.1332 -5.0146 49.0578 14.1564 37.751 -0.0995 -28.05 -0.2431 -169.555 -55.7294 -110.963 0.0679 -23.3996 -0.1402 -7.97679 -6.83188 76.9278 0.7932 -9.069 2.5189 -0.759273 16.9105 -1.33804 -0.8272 -3.3923 0.5977 -2.02681 1.26286 -0.0863592 -0.5649 -2.3158 0.4082 -36.4337 20.9898 5.00996 0.9159 -9.2044 0.2193 -11.3315 8.87949 -3.27161 0.0117 -4.1944 -0.0248 -14.6911 9.26504 -0.258868 0.0071 -2.3249 -0.0142 -11.1423 7.0381 -0.415166 0.6113 -8.7231 -2.0637 -10.218 6.55383 -0.258396 -0.1927 -3.8059 -0.2383 -13.9651 9.73918 -0.669658 -0.1091 -2.1688 -0.1362 -10.5195 7.33606 -0.726219 -0.6151 -8.0947 -3.5641 -11.2537 5.60268 -0.0526124 -0.4882 -2.341 -0.6462 -12.0121 8.30629 -1.13722 -0.3575 -1.7167 -0.4742 -10.7613 7.4344 -1.1024 -1.42 -1.8761 1.4223 4.72616 10.0082 -2.61796 -1.1471 -3.4929 2.6334 -21.5771 5.3889 -11.1685 -0.823 -2.3 1.6571 2.80285 3.66059 -0.855636 -2.2603 21.606 7.4023 -21.6359 -1.12603 24.284 -13.5187 -1.1334 -5.0155 8.21789 -60.3122 29.0308 0.0994 -28.0499 -0.2431 83.4272 -51.9358 50.1388 -0.0679 -23.3996 -0.1402 19.6352 -11.1849 -43.4847 -0.7932 -9.0691 2.5189 -9.19259 -7.90015 2.56306 0.8272 -3.3923 0.5977 -0.13402 -1.29587 1.6552 0.565 -2.3158 0.4082 -1.0803 -0.369512 0.0140071 -0.916 -9.2044 0.2193 0.635097 0.662028 3.10834 -0.0117 -4.1944 -0.0248 7.24226 2.46745 0.0166295 -0.0071 -2.3249 -0.0142 -5.94263 -2.00846 -0.245975 -0.6113 -8.7231 -2.0637 -0.357812 4.53433 0.906733 0.1927 -3.8059 -0.2383 9.30303 3.61159 0.232196 0.1091 -2.1688 -0.1362 -3.6908 -1.41246 -0.25345 0.6151 -8.0947 -3.564 4.69116 13.3637 -2.2535 0.4882 -2.341 -0.6462 -0.0188461 -0.123788 -0.293492 0.3574 -1.7166 -0.4742 -3.47176 -1.28276 -0.333383 1.4199 -1.8761 1.4221 8.80403 0.627344 10.8992 1.1472 -3.4929 2.6336 0.867079 -0.654169 -0.916833 0.8229 -2.3 1.6571 2.25958 -5.4106 -1.57978 -9.412 3.9771 -0.7758 15.1841 56.8095 -3.29929 -0.7531 -40.938 0 -2.61066 0.000408653 1.82161 2.84217e-014 -40.1986 0 9.04966 1.00646 -17.0614 1.42109e-014 -4.4182 9.239 3.91064 23.6332 -2.19699 9.4119 3.9773 -0.7758 11.0414 5.90245 -31.6663 0.7532 -40.9383 1.42109e-014 0.0386155 5.48322 -0.171143 0 -40.1986 0 -4.2789 12.6172 -4.37576 -7.10543e-015 -4.4182 9.239 -0.377289 5.41807 -0.238321 
-24.561 43.0472 2.31954 0 0 -0 3.55271e-015 78.7191 0 35.5609 -7.34606 -28.2268 1.42109e-014 8.7983 -4.7612 -5.36011 -2.19342 10.8378 2.13163e-014 8.0291 0.4195 -10.2277 -5.34657 21.4579 1.77636e-015 9.9351 -2.2114 -10.2277 -5.34655 21.4579 -3.55271e-015 22.3885 -0.4656 3.06602 -14.8088 29.8564 -0.0001 12.643 3.4389 7.37129 -0.230413 14.1376 2.2603 21.606 7.4023 29.6382 0.383521 5.235 13.5163 -1.1332 -5.0146 49.6099 12.6265 38.2627 -0.0995 -28.05 -0.2431 -171.164 -55.0658 -112.424 0.0679 -23.3996 -0.1402 -9.24087 -5.57458 78.2178 0.7932 -9.069 2.5189 -0.759176 16.9105 -1.3382 -0.827201 -3.3923 0.5977 -2.02678 1.2628 -0.086565 -0.5649 -2.3158 0.4082 -36.4337 20.9898 5.00995 0.9159 -9.2044 0.2193 -11.3315 8.87947 -3.27158 0.0117 -4.1944 -0.0248 -14.6911 9.26504 -0.258844 0.0071 -2.3249 -0.0142 -11.1423 7.03814 -0.415126 0.6113 -8.7231 -2.0637 -10.2179 6.55382 -0.258398 -0.1927 -3.8059 -0.2383 -13.9651 9.7392 -0.669645 -0.1091 -2.1688 -0.1362 -10.5195 7.33609 -0.726202 -0.6151 -8.0947 -3.5641 -11.2537 5.60268 -0.0525847 -0.4882 -2.341 -0.6462 -12.0121 8.30628 -1.13722 -0.3575 -1.7167 -0.4742 -10.7614 7.43437 -1.10229 -1.42 -1.8761 1.4223 4.72614 10.0082 -2.61789 -1.1471 -3.4929 2.6334 -21.5772 5.38888 -11.1685 -0.823 -2.3 1.6571 2.80285 3.66058 -0.855622 -2.2603 21.606 7.4023 -26.0758 -0.74024 19.994 -13.5187 -1.1334 -5.0155 0.141339 -63.0877 22.5114 0.0994 -28.0499 -0.2431 81.7421 -58.8263 49.361 -0.0679 -23.3996 -0.1402 27.7819 -9.36881 -38.5683 -0.7932 -9.0691 2.5189 -9.19258 -7.90013 2.56308 0.8272 -3.3923 0.5977 -0.133991 -1.29588 1.65521 0.565 -2.3158 0.4082 -1.08028 -0.369489 0.0140004 -0.916 -9.2044 0.2193 0.636008 0.662552 3.10737 -0.0117 -4.1944 -0.0248 7.24227 2.4675 0.0165738 -0.0071 -2.3249 -0.0142 -5.94256 -2.00859 -0.245845 -0.6113 -8.7231 -2.0637 -0.357797 4.53437 0.906718 0.1927 -3.8059 -0.2383 9.30306 3.61154 0.232272 0.1091 -2.1688 -0.1362 -3.69079 -1.41243 -0.253464 0.6151 -8.0947 -3.564 4.69115 13.3638 -2.25358 0.4882 -2.341 -0.6462 -0.0188016 -0.12387 -0.293345 0.3574 -1.7166 -0.4742 -3.46897 -1.28169 -0.333104 1.4199 -1.8761 1.4221 8.80256 0.623029 10.908 1.1472 -3.4929 2.6336 0.867145 -0.654021 -0.916885 0.8229 -2.3 1.6571 2.25959 -5.41061 -1.57976 -9.412 3.9771 -0.7758 14.7606 55.2409 -2.47845 -0.7531 -40.938 0 -2.46213 0.000364085 1.83385 0 -40.1986 0 10.1022 1.57387 -16.5991 0 -4.4182 9.239 3.50251 21.545 -1.91975 9.4119 3.9773 -0.7758 11.0203 3.74763 -31.5953 0.7532 -40.9383 -7.10543e-015 0.0327126 5.03872 -0.194491 -7.10543e-015 -40.1986 -1.42109e-014 -5.16952 13.1519 -4.90427 -7.10543e-015 -4.4182 9.239 -0.518196 6.46508 -0.230095 
-24.0558 43.1027 2.01401 0 0 -0 3.55271e-015 78.7191 0 36.8317 -2.76503 -21.8837 7.10543e-015 8.7983 -4.7612 -5.60814 -2.74436 10.4147 0 8.0291 0.4195 -10.6513 -6.44554 20.5594 -1.77636e-015 9.9351 -2.2114 -10.6512 -6.44554 20.5594 -7.10543e-015 22.3885 -0.4656 3.05327 -13.7474 29.6373 -0.0001 12.643 3.4389 6.73859 0.811842 14.0321 2.2603 21.606 7.4023 29.2323 0.305671 4.38256 13.5163 -1.1332 -5.0146 50.2148 10.872 38.5348 -0.0995 -28.05 -0.2431 -171.536 -55.2009 -112.6 0.0679 -23.3996 -0.1402 -10.5689 -4.90408 79.3307 0.7932 -9.069 2.5189 -0.759197 16.9105 -1.33819 -0.8272 -3.3923 0.5977 -2.02677 1.26282 -0.0865515 -0.5649 -2.3158 0.4082 -36.4337 20.9898 5.00995 0.9159 -9.2044 0.2193 -11.3315 8.87942 -3.2715 0.0117 -4.1944 -0.0248 -14.6911 9.26503 -0.258865 0.0071 -2.3249 -0.0142 -11.1422 7.03818 -0.415043 0.6113 -8.7231 -2.0637 -10.218 6.55382 -0.258389 -0.1927 -3.8059 -0.2383 -13.9651 9.73919 -0.669646 -0.1091 -2.1688 -0.1362 -10.5195 7.3361 -0.726159 -0.6151 -8.0947 -3.5641 -11.2537 5.60267 -0.0525349 -0.4882 -2.341 -0.6462 -12.012 8.30626 -1.13721 -0.3575 -1.7167 -0.4742 -10.7614 7.43441 -1.10224 -1.42 -1.8761 1.4223 4.72612 10.0082 -2.61785 -1.1471 -3.4929 2.6334 -21.5771 5.38891 -11.1685 -0.823 -2.3 1.6571 2.80286 3.66058 -0.855599 -2.2603 21.606 7.4023 -29.6437 -0.44682 16.8508 -13.5187 -1.1334 -5.0155 -12.645 -65.657 11.1878 0.0994 -28.0499 -0.2431 73.2327 -64.096 44.3428 -0.0679 -23.3996 -0.1402 22.5249 -6.83703 -39.98 -0.7932 -9.06911 2.5189 -9.19257 -7.9001 2.56308 0.8272 -3.3923 0.5977 -0.134012 -1.29591 1.65523 0.565 -2.3158 0.4082 -1.08029 -0.369492 0.014011 -0.916 -9.20441 0.2193 0.636905 0.663073 3.10638 -0.0117 -4.1944 -0.0248 7.24227 2.46747 0.0166277 -0.0071 -2.3249 -0.0142 -5.94255 -2.00861 -0.245817 -0.6113 -8.7231 -2.0637 -0.357799 4.53442 0.9067 0.1927 -3.8059 -0.2383 9.30304 3.6115 0.232351 0.1091 -2.1688 -0.1362 -3.69078 -1.41244 -0.25344 0.6151 -8.0947 -3.564 4.69114 13.3638 -2.25359 0.4882 -2.341 -0.6462 -0.0188248 -0.123954 -0.293293 0.3574 -1.7166 -0.4742 -3.46617 -1.28067 -0.332824 1.4199 -1.8761 1.4221 8.8011 0.618704 10.9169 1.1472 -3.4929 2.6336 0.867317 -0.654077 -0.917121 0.8229 -2.3 1.6571 2.25959 -5.41059 -1.57976 -9.412 3.9771 -0.7758 13.5366 54.5447 -1.10586 -0.7531 -40.938 -2.84217e-014 -2.31635 0.0260641 1.71861 0 -40.1986 0 10.0132 2.32799 -15.8751 0 -4.4182 9.239 3.59842 22.0439 -1.98409 9.4119 3.9773 -0.7758 11.1357 2.10289 -31.3817 0.7532 -40.9383 -1.42109e-014 0.038027 4.23464 -0.161114 0 -40.1986 -7.10543e-015 -5.4327 13.4704 -4.33706 7.10543e-015 -4.4182 9.239 -0.486648 6.23087 -0.232152 
-23.667 43.0933 1.80137 0 0 -0 3.55271e-015 78.7191 0 37.3212 0.92854 -15.9473 0 8.7983 -4.7612 -5.77232 -3.07314 10.1618 1.42109e-014 8.0291 0.4195 -10.941 -7.10278 20.0196 1.77636e-015 9.9351 -2.2114 -10.941 -7.10277 20.0196 -3.55271e-015 22.3885 -0.4656 3.10937 -12.4862 29.8107 -0.0001 12.643 3.4389 6.06109 1.81248 13.8221 2.2603 21.606 7.4023 28.8276 0.23469 3.52352 13.5163 -1.1332 -5.0146 50.9386 9.05032 38.7431 -0.0995 -28.05 -0.2431 -171.184 -55.7709 -112.024 0.0679 -23.3996 -0.1402 -11.9613 -4.82234 80.4629 0.7932 -9.069 2.5189 -0.759181 16.9105 -1.33818 -0.8272 -3.3923 0.5977 -2.02676 1.26282 -0.0865041 -0.5649 -2.3158 0.4082 -36.4337 20.9898 5.00997 0.9159 -9.2044 0.2193 -11.3315 8.87948 -3.27164 0.0117 -4.1944 -0.0248 -14.6911 9.26505 -0.258841 0.0071 -2.3249 -0.0142 -11.1423 7.03809 -0.415225 0.6113 -8.7231 -2.0637 -10.2179 6.55381 -0.258379 -0.1927 -3.8059 -0.2383 -13.9651 9.73921 -0.669633 -0.1091 -2.1688 -0.1362 -10.5195 7.33605 -0.726234 -0.6151 -8.0947 -3.5641 -11.2537 5.60262 -0.05244 -0.4882 -2.341 -0.6462 -12.0121 8.30628 -1.1372 -0.3575 -1.7167 -0.4742 -10.7615 7.43436 -1.10213 -1.42 -1.8761 1.4223 4.72616 10.0082 -2.61798 -1.1471 -3.4929 2.6334 -21.5772 5.3889 -11.1684 -0.823001 -2.3 1.6571 2.80284 3.66058 -0.855602 -2.2603 21.606 7.4023 -30.6835 -0.348655 15.8685 -13.5187 -1.1334 -5.0155 -23.5704 -68.6608 1.47422 0.0994 -28.0499 -0.2431 57.5612 -70.0841 31.7931 -0.0679 -23.3996 -0.1402 16.7417 -9.08392 -49.7574 -0.7932 -9.0691 2.5189 -9.19258 -7.90012 2.5631 0.8272 -3.3923 0.5977 -0.134063 -1.29592 1.65527 0.565 -2.3158 0.4082 -1.08028 -0.369498 0.0140163 -0.916 -9.2044 0.2193 0.637754 0.663565 3.10536 -0.0117 -4.1944 -0.0248 7.2423 2.46747 0.0167299 -0.0071 -2.3249 -0.0142 -5.94256 -2.00864 -0.245791 -0.6113 -8.7231 -2.0637 -0.357833 4.5344 0.906685 0.1927 -3.8059 -0.2383 9.30305 3.61147 0.232425 0.1091 -2.1688 -0.1362 -3.69076 -1.41246 -0.253439 0.6151 -8.0947 -3.564 4.6911 13.3638 -2.25354 0.4882 -2.341 -0.6462 -0.0188483 -0.123933 -0.293212 0.3574 -1.7166 -0.4742 -3.46339 -1.27967 -0.332524 1.4199 -1.8761 1.4221 8.79964 0.614356 10.9257 1.1472 -3.4929 2.6336 0.867463 -0.654104 -0.917274 0.8229 -2.3 1.6571 2.25958 -5.41058 -1.57975 -9.412 3.9771 -0.7758 11.5254 55.1188 0.834744 -0.7531 -40.938 1.42109e-014 -2.15374 0.00071802 1.43856 0 -40.1986 0 8.2393 3.00792 -15.3233 -7.10543e-015 -4.4182 9.239 3.71597 22.6484 -2.06367 9.4119 3.9773 -0.7758 11.367 1.62895 -31.1411 0.7532 -40.9383 -7.10543e-015 0.0250337 3.18947 -0.162256 7.10543e-015 -40.1986 -7.10543e-015 -5.14497 13.8211 -4.26439 7.10543e-015 -4.4182 9.239 -0.525949 6.52263 -0.229564 
